<svg width="46" height="44" viewBox="0 0 46 44" fill="none" xmlns="http://www.w3.org/2000/svg">
<g filter="url(#filter0_d_407_977)">
<path d="M22.75 37.2858C33.1053 37.2858 41.5 29.3868 41.5 19.6429C41.5 9.89898 33.1053 2 22.75 2C12.3947 2 4 9.89898 4 19.6429C4 29.3868 12.3947 37.2858 22.75 37.2858Z" fill="#333333"/>
<path d="M22.75 37.2858C33.1053 37.2858 41.5 29.3868 41.5 19.6429C41.5 9.89898 33.1053 2 22.75 2C12.3947 2 4 9.89898 4 19.6429C4 29.3868 12.3947 37.2858 22.75 37.2858Z" stroke="#333333" stroke-width="2" stroke-linecap="round" stroke-linejoin="round"/>
</g>
<path d="M22.75 12.5857L15.25 19.6428L22.75 26.7" stroke="#F6F6F6" stroke-width="2" stroke-linecap="round" stroke-linejoin="round"/>
<path d="M30.25 19.6428H15.25" stroke="#F6F6F6" stroke-width="2" stroke-linecap="round" stroke-linejoin="round"/>
<defs>
<filter id="filter0_d_407_977" x="0" y="0" width="45.5" height="43.2856" filterUnits="userSpaceOnUse" color-interpolation-filters="sRGB">
<feFlood flood-opacity="0" result="BackgroundImageFix"/>
<feColorMatrix in="SourceAlpha" type="matrix" values="0 0 0 0 0 0 0 0 0 0 0 0 0 0 0 0 0 0 127 0" result="hardAlpha"/>
<feOffset dy="2"/>
<feGaussianBlur stdDeviation="1.5"/>
<feComposite in2="hardAlpha" operator="out"/>
<feColorMatrix type="matrix" values="0 0 0 0 0 0 0 0 0 0 0 0 0 0 0 0 0 0 0.32 0"/>
<feBlend mode="normal" in2="BackgroundImageFix" result="effect1_dropShadow_407_977"/>
<feBlend mode="normal" in="SourceGraphic" in2="effect1_dropShadow_407_977" result="shape"/>
</filter>
</defs>
</svg>
