<svg width="184" height="1157" viewBox="0 0 184 1157" fill="none" xmlns="http://www.w3.org/2000/svg">
<rect width="20" height="20" fill="#94CBEC"/>
<rect x="41" width="20" height="20" fill="#94CBEC"/>
<rect x="82" width="20" height="20" fill="#CC79A7"/>
<rect x="123" width="20" height="20" fill="#CC79A7"/>
<rect x="164" width="20" height="20" fill="#CC79A7"/>
<rect y="37" width="20" height="20" fill="#CC79A7"/>
<rect x="41" y="37" width="20" height="20" fill="black"/>
<rect x="82" y="37" width="20" height="20" fill="#94CBEC"/>
<rect x="123" y="37" width="20" height="20" fill="#E79F00"/>
<rect x="164" y="37" width="20" height="20" fill="#94CBEC"/>
<rect y="74" width="20" height="20" fill="#94CBEC"/>
<rect x="41" y="74" width="20" height="20" fill="black"/>
<rect x="82" y="74" width="20" height="20" fill="#E79F00"/>
<rect x="123" y="74" width="20" height="20" fill="#E79F00"/>
<rect x="164" y="74" width="20" height="20" fill="#94CBEC"/>
<rect y="111" width="20" height="20" fill="black"/>
<rect x="41" y="111" width="20" height="20" fill="#94CBEC"/>
<rect x="82" y="111" width="20" height="20" fill="black"/>
<rect x="123" y="111" width="20" height="20" fill="black"/>
<rect x="164" y="111" width="20" height="20" fill="#94CBEC"/>
<rect y="684" width="20" height="20" fill="#94CBEC"/>
<rect x="41" y="684" width="20" height="20" fill="#94CBEC"/>
<rect x="82" y="684" width="20" height="20" fill="#CC79A7"/>
<rect x="123" y="684" width="20" height="20" fill="#CC79A7"/>
<rect x="164" y="684" width="20" height="20" fill="#CC79A7"/>
<rect y="721" width="20" height="20" fill="#CC79A7"/>
<rect x="41" y="721" width="20" height="20" fill="black"/>
<rect x="82" y="721" width="20" height="20" fill="#94CBEC"/>
<rect x="123" y="721" width="20" height="20" fill="#E79F00"/>
<rect x="164" y="721" width="20" height="20" fill="#94CBEC"/>
<rect y="758" width="20" height="20" fill="#94CBEC"/>
<rect x="41" y="758" width="20" height="20" fill="black"/>
<rect x="82" y="758" width="20" height="20" fill="#E79F00"/>
<rect x="123" y="758" width="20" height="20" fill="#E79F00"/>
<rect x="164" y="758" width="20" height="20" fill="#94CBEC"/>
<rect y="795" width="20" height="20" fill="black"/>
<rect x="41" y="795" width="20" height="20" fill="#94CBEC"/>
<rect x="82" y="795" width="20" height="20" fill="black"/>
<rect x="123" y="795" width="20" height="20" fill="black"/>
<rect x="164" y="795" width="20" height="20" fill="#94CBEC"/>
<rect y="513" width="20" height="20" fill="#94CBEC"/>
<rect x="41" y="513" width="20" height="20" fill="#94CBEC"/>
<rect x="82" y="513" width="20" height="20" fill="#CC79A7"/>
<rect x="123" y="513" width="20" height="20" fill="#CC79A7"/>
<rect x="164" y="513" width="20" height="20" fill="#CC79A7"/>
<rect y="550" width="20" height="20" fill="#CC79A7"/>
<rect x="41" y="550" width="20" height="20" fill="black"/>
<rect x="82" y="550" width="20" height="20" fill="#94CBEC"/>
<rect x="123" y="550" width="20" height="20" fill="#E79F00"/>
<rect x="164" y="550" width="20" height="20" fill="#94CBEC"/>
<rect y="587" width="20" height="20" fill="#94CBEC"/>
<rect x="41" y="587" width="20" height="20" fill="black"/>
<rect x="82" y="587" width="20" height="20" fill="#E79F00"/>
<rect x="123" y="587" width="20" height="20" fill="#E79F00"/>
<rect x="164" y="587" width="20" height="20" fill="#94CBEC"/>
<rect y="624" width="20" height="20" fill="black"/>
<rect x="41" y="624" width="20" height="20" fill="#94CBEC"/>
<rect x="82" y="624" width="20" height="20" fill="black"/>
<rect x="123" y="624" width="20" height="20" fill="black"/>
<rect x="164" y="624" width="20" height="20" fill="#94CBEC"/>
<rect y="342" width="20" height="20" fill="#E79F00"/>
<rect y="416" width="20" height="20" fill="black"/>
<rect y="379" width="20" height="20" fill="#CC79A7"/>
<rect y="453" width="20" height="20" fill="black"/>
<path d="M0 473L20 453H0V473Z" fill="#94CBEC"/>
<rect x="41" y="342" width="20" height="20" fill="black"/>
<path d="M61 342L41 362V342H61Z" fill="#E79F00"/>
<rect x="41" y="416" width="20" height="20" fill="black"/>
<rect x="41" y="379" width="20" height="20" fill="#CC79A7"/>
<rect x="41" y="453" width="20" height="20" fill="#94CBEC"/>
<rect x="82" y="342" width="20" height="20" fill="black"/>
<path d="M102 342L82 362V342H102Z" fill="#94CBEC"/>
<rect x="82" y="416" width="20" height="20" fill="black"/>
<rect x="82" y="379" width="20" height="20" fill="#94CBEC"/>
<rect x="82" y="453" width="20" height="20" fill="#94CBEC"/>
<rect x="123" y="342" width="20" height="20" fill="#94CBEC"/>
<rect x="123" y="416" width="20" height="20" fill="black"/>
<rect x="123" y="379" width="20" height="20" fill="#E79F00"/>
<rect x="123" y="453" width="20" height="20" fill="#94CBEC"/>
<rect x="164" y="342" width="20" height="20" fill="#94CBEC"/>
<rect x="164" y="416" width="20" height="20" fill="black"/>
<rect x="164" y="379" width="20" height="20" fill="#E79F00"/>
<rect x="164" y="453" width="20" height="20" fill="#CC79A7"/>
<path d="M123 436L143 416H123V436Z" fill="#E79F00"/>
<rect y="855" width="20" height="20" fill="#E79F00"/>
<rect y="929" width="20" height="20" fill="black"/>
<rect y="892" width="20" height="20" fill="#CC79A7"/>
<rect y="966" width="20" height="20" fill="black"/>
<path d="M0 986L20 966H0V986Z" fill="#94CBEC"/>
<rect x="41" y="855" width="20" height="20" fill="black"/>
<path d="M61 855L41 875V855H61Z" fill="#E79F00"/>
<rect x="41" y="929" width="20" height="20" fill="black"/>
<rect x="41" y="892" width="20" height="20" fill="#CC79A7"/>
<rect x="41" y="966" width="20" height="20" fill="#94CBEC"/>
<rect x="82" y="855" width="20" height="20" fill="black"/>
<path d="M102 855L82 875V855H102Z" fill="#94CBEC"/>
<rect x="82" y="929" width="20" height="20" fill="black"/>
<rect x="82" y="892" width="20" height="20" fill="#94CBEC"/>
<rect x="82" y="966" width="20" height="20" fill="#94CBEC"/>
<rect x="123" y="855" width="20" height="20" fill="#94CBEC"/>
<rect x="123" y="929" width="20" height="20" fill="black"/>
<rect x="123" y="892" width="20" height="20" fill="#E79F00"/>
<rect x="123" y="966" width="20" height="20" fill="#94CBEC"/>
<rect x="164" y="855" width="20" height="20" fill="#94CBEC"/>
<rect x="164" y="929" width="20" height="20" fill="black"/>
<rect x="164" y="892" width="20" height="20" fill="#E79F00"/>
<rect x="164" y="966" width="20" height="20" fill="#CC79A7"/>
<path d="M123 949L143 929H123V949Z" fill="#E79F00"/>
<rect y="1026" width="20" height="20" fill="#E79F00"/>
<rect y="1100" width="20" height="20" fill="black"/>
<rect y="1063" width="20" height="20" fill="#CC79A7"/>
<rect y="1137" width="20" height="20" fill="black"/>
<path d="M0 1157L20 1137H0V1157Z" fill="#94CBEC"/>
<rect x="41" y="1026" width="20" height="20" fill="black"/>
<path d="M61 1026L41 1046V1026H61Z" fill="#E79F00"/>
<rect x="41" y="1100" width="20" height="20" fill="black"/>
<rect x="41" y="1063" width="20" height="20" fill="#CC79A7"/>
<rect x="41" y="1137" width="20" height="20" fill="#94CBEC"/>
<rect x="82" y="1026" width="20" height="20" fill="black"/>
<path d="M102 1026L82 1046V1026H102Z" fill="#94CBEC"/>
<rect x="82" y="1100" width="20" height="20" fill="black"/>
<rect x="82" y="1063" width="20" height="20" fill="#94CBEC"/>
<rect x="82" y="1137" width="20" height="20" fill="#94CBEC"/>
<rect x="123" y="1026" width="20" height="20" fill="#94CBEC"/>
<rect x="123" y="1100" width="20" height="20" fill="black"/>
<rect x="123" y="1063" width="20" height="20" fill="#E79F00"/>
<rect x="123" y="1137" width="20" height="20" fill="#94CBEC"/>
<rect x="164" y="1026" width="20" height="20" fill="#94CBEC"/>
<rect x="164" y="1100" width="20" height="20" fill="black"/>
<rect x="164" y="1063" width="20" height="20" fill="#E79F00"/>
<rect x="164" y="1137" width="20" height="20" fill="#CC79A7"/>
<path d="M123 1120L143 1100H123V1120Z" fill="#E79F00"/>
<rect y="171" width="20" height="20" fill="#CC79A7"/>
<rect y="245" width="20" height="20" fill="black"/>
<rect y="208" width="20" height="20" fill="#CC79A7"/>
<rect y="282" width="20" height="20" fill="black"/>
<path d="M0 302L20 282H0V302Z" fill="#94CBEC"/>
<rect x="41" y="171" width="20" height="20" fill="black"/>
<path d="M61 171L41 191V171H61Z" fill="#E79F00"/>
<rect x="41" y="245" width="20" height="20" fill="#94CBEC"/>
<rect x="41" y="208" width="20" height="20" fill="#CC79A7"/>
<rect x="41" y="282" width="20" height="20" fill="#94CBEC"/>
<rect x="82" y="171" width="20" height="20" fill="black"/>
<path d="M102 171L82 191V171H102Z" fill="#94CBEC"/>
<rect x="82" y="245" width="20" height="20" fill="#94CBEC"/>
<rect x="82" y="208" width="20" height="20" fill="#94CBEC"/>
<rect x="82" y="282" width="20" height="20" fill="#E79F00"/>
<rect x="123" y="171" width="20" height="20" fill="black"/>
<rect x="123" y="245" width="20" height="20" fill="black"/>
<rect x="123" y="208" width="20" height="20" fill="#E79F00"/>
<rect x="123" y="282" width="20" height="20" fill="#E79F00"/>
<rect x="164" y="171" width="20" height="20" fill="black"/>
<rect x="164" y="245" width="20" height="20" fill="black"/>
<rect x="164" y="208" width="20" height="20" fill="#E79F00"/>
<rect x="164" y="282" width="20" height="20" fill="#CC79A7"/>
<path d="M123 265L143 245H123V265Z" fill="#E79F00"/>
</svg>
