<svg width="20" height="20" viewBox="0 0 20 20" fill="none" xmlns="http://www.w3.org/2000/svg">
<path d="M14.0934 2.90278C12.062 0.887068 7.92198 0.661354 5.54841 3.05064C5.15913 3.43171 5.22948 3.86743 5.49413 4.13207C5.68091 4.32671 5.97627 4.41243 6.25663 4.32671C7.91413 3.80528 9.44734 3.75885 10.6691 4.66135L10.0156 6.40457C9.76627 7.08171 9.89877 7.55635 10.3423 8.00778L12.1398 9.81314C12.4981 10.1789 12.8948 10.2881 13.4163 10.1631L14.677 9.87528L15.2841 10.4824L15.1827 11.3696C15.1284 11.7353 15.1748 11.961 15.4941 12.2803L16.1013 12.8639C16.4356 13.1985 16.8638 13.2296 17.1827 12.9103L19.6809 10.4281C19.9998 10.1089 19.9531 9.681 19.6263 9.3385L19.027 8.73921C18.7234 8.42778 18.4823 8.36564 18.132 8.42028L17.2373 8.52921L16.6223 7.93778L16.9959 6.59921C17.1127 6.1635 16.9648 5.7585 16.4977 5.29921L14.0934 2.90278ZM0.793055 15.9999C0.0391268 16.6692 -0.000158891 17.3696 0.700555 18.0778L1.9377 19.3074C2.6302 19.9999 3.35377 19.961 4.01556 19.2139L11.5095 10.8014L9.20591 8.50564L0.793055 15.9999Z" fill="#1E1E1E"/>
</svg>
