<svg width="18" height="18" viewBox="0 0 18 22" fill="none" xmlns="http://www.w3.org/2000/svg">
<path d="M11.001 21.7596L0.999999 21.7596C0.734782 21.7596 0.480428 21.645 0.292892 21.4409C0.105355 21.2369 -8.42109e-07 20.9602 -8.30516e-07 20.6716L-4.80825e-07 11.9678L11.001 11.9678L11.001 21.7596ZM5.001 9.79181L-3.93402e-07 9.79181L-4.37114e-08 1.08798C-3.21184e-08 0.799428 0.105356 0.522696 0.292892 0.318661C0.480429 0.114625 0.734783 -8.21083e-07 1 -8.0847e-07L5.001 -6.18194e-07L5.001 9.79181ZM18 9.79181L7.001 9.79181L7.001 -5.2308e-07L17 -4.75571e-08C17.2652 -3.49442e-08 17.5196 0.114626 17.7071 0.318662C17.8946 0.522697 18 0.799429 18 1.08798L18 9.79181ZM18 20.6716C18 20.9602 17.8946 21.2369 17.7071 21.4409C17.5196 21.645 17.2652 21.7596 17 21.7596L13.001 21.7596L13.001 11.9678L18 11.9678L18 20.6716Z" fill="#1E1E1E"/>
</svg>
