<svg width="24" height="24" viewBox="0 0 24 24" fill="none" xmlns="http://www.w3.org/2000/svg">
<path d="M19.2751 9.17498L15.7501 5.64998L13.6251 7.74998L11.5001 5.64998L14.3251 2.79998C14.5251 2.59998 14.7501 2.45431 15.0001 2.36298C15.2501 2.27164 15.5001 2.22564 15.7501 2.22498C16.0168 2.22498 16.2711 2.27098 16.5131 2.36298C16.7551 2.45498 16.9674 2.60064 17.1501 2.79998L19.2751 4.92498C19.5751 5.20831 19.7961 5.53764 19.9381 5.91298C20.0801 6.28831 20.1508 6.66731 20.1501 7.04998C20.1494 7.43264 20.0788 7.80764 19.9381 8.17498C19.7974 8.54231 19.5764 8.87564 19.2751 9.17498ZM5.5001 13.775C5.2001 13.475 5.0501 13.121 5.0501 12.713C5.0501 12.305 5.2001 11.9506 5.5001 11.65L7.9501 9.17498L10.0751 11.3L7.6001 13.775C7.31676 14.075 6.9711 14.225 6.5631 14.225C6.1551 14.225 5.80076 14.075 5.5001 13.775ZM4.4251 21.2C4.24176 21 4.1001 20.7793 4.0001 20.538C3.9001 20.2966 3.8501 20.0423 3.8501 19.775C3.8501 19.5076 3.8961 19.2536 3.9881 19.013C4.0801 18.7723 4.22576 18.5513 4.4251 18.35L11.5001 11.3L8.3251 8.09998C8.0251 7.81664 7.8751 7.47098 7.8751 7.06298C7.8751 6.65498 8.0251 6.30064 8.3251 5.99998C8.60843 5.69998 8.95843 5.54998 9.3751 5.54998C9.79176 5.54998 10.1501 5.69998 10.4501 5.99998L13.6251 9.17498L15.0501 7.74998L17.8501 10.6C18.0501 10.8 18.1501 11.0333 18.1501 11.3C18.1501 11.5666 18.0501 11.8 17.8501 12C17.6501 12.2 17.4168 12.3 17.1501 12.3C16.8834 12.3 16.6501 12.2 16.4501 12L7.2501 21.2C7.0501 21.4 6.8291 21.546 6.5871 21.638C6.3451 21.73 6.09943 21.7756 5.8501 21.775C5.60076 21.7743 5.35076 21.7243 5.1001 21.625C4.84943 21.5256 4.62443 21.384 4.4251 21.2Z" fill="#1E1E1E"/>
</svg>
